# Alias OBJ Model File
# Exported from SketchUp, (c) 2000-2006 Google, Inc.
# File units = inches

mtllib letter_p.mtl

g Mesh1 P1 Model

usemtl FrontColor
v 0.347044 1.35861 0
vt -0.347044 1.35861
vn 0 0 -1
v 0.658098 1.12339 0
vt -0.658098 1.12339
v 0.347044 0 0
vt -0.347044 0
f 1/1/1 2/2/1 3/3/1

v 1.509 1.35861 0
vt -1.509 1.35861
f 2/2/1 1/1/1 4/4/1

usemtl BackColor
vn -0 -0 1
f 3/3/2 2/2/2 1/1/2

usemtl FrontColor
v 0.658098 0 0
vt -0.658098 0
f 2/2/1 5/5/1 3/3/1

v 0.658098 0.763496 0
vt -0.658098 0.763496
f 5/5/1 2/2/1 6/6/1

usemtl BackColor
f 3/3/2 5/5/2 2/2/2

usemtl FrontColor
v 0.658098 0 0.125
vt 0.658098 0.125
vn 0 -1 0
vt 0.347044 0
vt 0.658098 0
f 7/7/3 3/8/3 5/9/3

v 0.347044 0 0.125
vt 0.347044 0.125
f 3/8/3 7/7/3 8/10/3

usemtl BackColor
vn -0 1 -0
f 5/9/4 3/8/4 7/7/4

f 8/10/4 7/7/4 3/8/4

usemtl FrontColor
vn 0 0 1
v 0.347044 1.35861 0.125
vt 0.347044 1.35861
f 7/9/5 9/11/5 8/8/5

v 0.658098 1.12339 0.125
vt 0.658098 1.12339
f 9/11/5 7/9/5 10/12/5

usemtl BackColor
vn -0 -0 -1
f 8/8/6 9/11/6 7/9/6

usemtl FrontColor
vt -1.35861 0.125
vn -1 0 0
vt 0 0
vt 0 0.125
f 9/13/7 3/14/7 8/15/7

vt -1.35861 0
f 3/14/7 9/13/7 1/16/7

usemtl BackColor
vn 1 -0 -0
f 8/15/8 3/14/8 9/13/8

f 1/16/8 9/13/8 3/14/8

usemtl FrontColor
vt -0.347044 0.125
vn 0 1 0
vt -1.509 0
vn 0.0555526 0.998456 0
f 9/17/9 4/18/10 1/3/9

v 1.509 1.35861 0.125
vt -1.509 0.125
f 4/18/10 9/17/9 11/19/10

usemtl BackColor
vn -0 -1 -0
vn -0.0555526 -0.998456 -0
f 1/3/11 4/18/12 9/17/11

f 4/4/2 1/1/2 2/2/2

usemtl FrontColor
v 1.36889 1.12339 0
vt -1.36889 1.12339
f 2/2/1 4/4/1 12/20/1

usemtl BackColor
f 12/20/2 4/4/2 2/2/2

usemtl FrontColor
v 1.43814 1.11745 0
vt -1.43814 1.11745
f 12/20/1 4/4/1 13/21/1

usemtl BackColor
f 13/21/2 4/4/2 12/20/2

usemtl FrontColor
v 1.48136 1.09961 0
vt -1.48136 1.09961
f 13/21/1 4/4/1 14/22/1

usemtl BackColor
f 14/22/2 4/4/2 13/21/2

usemtl FrontColor
v 1.50402 1.067 0
vt -1.50402 1.067
f 14/22/1 4/4/1 15/23/1

usemtl BackColor
f 15/23/2 4/4/2 14/22/2

usemtl FrontColor
v 1.51157 1.01671 0
vt -1.51157 1.01671
f 15/23/1 4/4/1 16/24/1

usemtl BackColor
f 16/24/2 4/4/2 15/23/2

usemtl FrontColor
v 1.64862 1.34303 0
vt -1.64862 1.34303
f 16/24/1 4/4/1 17/25/1

usemtl BackColor
f 17/25/2 4/4/2 16/24/2

usemtl FrontColor
vt -1.34897 0.125
vt -1.48946 0
vn 0.280534 0.959844 0
vt -1.34897 0
f 11/26/10 17/27/13 4/28/10

v 1.64862 1.34303 0.125
vt -1.48946 0.125
f 17/27/13 11/26/10 18/29/13

usemtl BackColor
vn -0.280534 -0.959844 -0
f 4/28/12 17/27/14 11/26/12

f 18/29/14 11/26/12 17/27/14

usemtl FrontColor
vt 1.509 1.35861
v 1.51157 1.01671 0.125
vt 1.51157 1.01671
vt 1.64862 1.34303
f 11/30/5 19/31/5 18/32/5

v 1.50402 1.067 0.125
vt 1.50402 1.067
f 11/30/5 20/33/5 19/31/5

v 1.48136 1.09961 0.125
vt 1.48136 1.09961
f 11/30/5 21/34/5 20/33/5

v 1.43814 1.11745 0.125
vt 1.43814 1.11745
f 11/30/5 22/35/5 21/34/5

v 1.36889 1.12339 0.125
vt 1.36889 1.12339
f 11/30/5 23/36/5 22/35/5

f 11/30/5 10/12/5 23/36/5

f 9/11/5 10/12/5 11/30/5

usemtl BackColor
f 10/12/6 7/9/6 9/11/6

usemtl FrontColor
v 0.658098 0.529563 0.125
vt 0.658098 0.529563
f 10/12/5 7/9/5 24/37/5

usemtl BackColor
f 24/37/6 7/9/6 10/12/6

usemtl FrontColor
vn 1 0 0
v 0.658098 0.529563 0
vt 0.529563 0
vt 0.529563 0.125
f 7/15/15 25/38/15 24/39/15

f 25/38/15 7/15/15 5/14/15

usemtl BackColor
vn -1 -0 -0
f 5/14/16 7/15/16 25/38/16

f 24/39/16 25/38/16 7/15/16

usemtl FrontColor
v 1.509 0.529563 0.125
vt 1.509 0.125
vn 0.0555526 -0.998456 0
f 25/9/3 26/40/17 24/7/3

v 1.509 0.529563 0
vt 1.509 0
f 26/40/17 25/9/3 27/41/17

usemtl BackColor
vn -0.0555526 0.998456 -0
f 27/41/18 25/9/4 26/40/18

usemtl FrontColor
vt -0.658098 0.529563
v 1.36889 0.763496 0
vt -1.36889 0.763496
vt -1.509 0.529563
f 25/42/1 28/43/1 27/44/1

f 28/43/1 25/42/1 6/6/1

usemtl BackColor
f 6/6/2 25/42/2 28/43/2

usemtl FrontColor
f 5/5/1 6/6/1 25/42/1

usemtl BackColor
f 6/6/2 2/2/2 5/5/2

usemtl FrontColor
vt 1.12339 0
v 0.658098 0.763496 0.125
vt 0.763496 0.125
vt 0.763496 0
f 2/45/15 29/46/15 6/47/15

vt 1.12339 0.125
f 29/46/15 2/45/15 10/48/15

usemtl BackColor
f 6/47/16 29/46/16 2/45/16

usemtl FrontColor
vt -0.658098 0.125
vt -1.36889 0
vn -0.0428054 0.999083 0
f 29/49/9 28/50/19 6/5/9

v 1.36889 0.763496 0.125
vt -1.36889 0.125
f 28/50/19 29/49/9 30/51/19

usemtl BackColor
vn 0.0428054 -0.999083 -0
f 6/5/11 28/50/20 29/49/11

f 30/51/20 29/49/11 28/50/20

usemtl FrontColor
vt 0.658098 0.763496
vt 1.509 0.529563
vt 1.36889 0.763496
f 29/52/5 26/53/5 30/54/5

f 26/53/5 29/52/5 24/37/5

usemtl BackColor
f 24/37/6 29/52/6 26/53/6

usemtl FrontColor
f 10/12/5 24/37/5 29/52/5

usemtl BackColor
f 29/52/6 24/37/6 10/12/6

f 10/48/16 2/45/16 29/46/16

usemtl FrontColor
vt 1.36889 0.125
vn -0.0428054 -0.999083 0
f 2/9/3 23/55/21 10/7/3

vt 1.36889 0
f 23/55/21 2/9/3 12/56/21

usemtl BackColor
vn 0.0428054 0.999083 -0
f 12/56/22 2/9/4 23/55/22

f 10/7/4 23/55/22 2/9/4

f 23/36/6 10/12/6 11/30/6

f 11/30/6 10/12/6 9/11/6

f 11/19/12 9/17/11 4/18/12

f 22/35/6 23/36/6 11/30/6

usemtl FrontColor
vt 1.26779 0
vt 1.33729 0.125
vn -0.236241 -0.971694 0
vt 1.26779 0.125
f 12/57/21 22/58/23 23/59/21

vt 1.33729 0
f 22/58/23 12/57/21 13/60/23

usemtl BackColor
vn 0.236241 0.971694 -0
f 13/60/24 12/57/22 22/58/24

f 23/59/22 22/58/24 12/57/22

usemtl FrontColor
vt 0.903169 0
vt 0.949923 0.125
vn -0.381441 -0.924393 0
vt 0.903169 0.125
f 13/61/23 21/62/25 22/63/23

vt 0.949923 0
f 21/62/25 13/61/23 14/64/25

usemtl BackColor
vn 0.381441 0.924393 -0
f 14/64/26 13/61/24 21/62/26

f 22/63/24 21/62/26 13/61/24

f 21/34/6 22/35/6 11/30/6

f 20/33/6 21/34/6 11/30/6

usemtl FrontColor
vt -0.0580571 0.125
vn -0.821317 -0.570472 0
vt -0.0183457 0
vn -0.929381 -0.369121 0
vt -0.0183457 0.125
f 21/65/27 15/66/28 20/67/28

vt -0.0580571 0
f 15/66/28 21/65/27 14/68/27

usemtl BackColor
vn 0.929381 0.369121 -0
vn 0.821317 0.570472 -0
f 20/67/29 15/66/29 21/65/30

usemtl FrontColor
vt -0.780977 0
vn -0.997224 -0.0744541 0
vt -0.83183 0.125
vt -0.83183 0
f 16/69/31 20/70/28 15/71/28

vt -0.780977 0.125
f 20/70/28 16/69/31 19/72/31

usemtl BackColor
vn 0.997224 0.0744541 -0
f 19/72/32 16/69/32 20/70/29

usemtl FrontColor
v 1.51157 0.871465 0
vt -0.871465 0
vn -0.997326 0.0730763 0
vt -1.01671 0.125
vt -1.01671 0
f 31/73/33 19/74/31 16/75/31

v 1.51157 0.871465 0.125
vt -0.871465 0.125
f 19/74/31 31/73/33 32/76/33

usemtl BackColor
vn 0.997326 -0.0730763 -0
f 32/76/34 31/73/34 19/74/32

usemtl FrontColor
v 1.50402 0.820212 0
vt -1.03068 0
vn -0.930731 0.365704 0
vt -1.08249 0.125
vt -1.08249 0
f 33/77/35 32/78/33 31/79/33

v 1.50402 0.820212 0.125
vt -1.03068 0.125
f 32/78/33 33/77/35 34/80/35

usemtl BackColor
vn 0.930731 -0.365704 -0
f 34/80/36 33/77/36 32/78/34

usemtl FrontColor
v 1.48136 0.787275 0
vt -1.48814 0
vn -0.823925 0.566699 0
vt -1.52812 0.125
vt -1.52812 0
f 35/81/37 34/82/35 33/83/35

v 1.48136 0.787275 0.125
vt -1.48814 0.125
f 34/82/35 35/81/37 36/84/37

usemtl BackColor
vn 0.823925 -0.566699 -0
f 36/84/38 35/81/38 34/82/36

usemtl FrontColor
vt -1.66966 0
vn -0.381441 0.924393 0
v 1.43814 0.769441 0.125
vt -1.62291 0.125
vn -0.236241 0.971694 0
vt -1.66966 0.125
f 35/85/39 37/86/40 36/87/39

v 1.43814 0.769441 0
vt -1.62291 0
f 37/86/40 35/85/39 38/88/40

usemtl BackColor
vn 0.236241 -0.971694 -0
vn 0.381441 -0.924393 -0
f 38/88/41 35/85/42 37/86/41

usemtl FrontColor
vt -1.43814 0.769441
vt -1.48136 0.787275
f 27/44/1 38/89/1 35/90/1

f 27/44/1 28/43/1 38/89/1

usemtl BackColor
f 27/44/2 28/43/2 25/42/2

f 38/89/2 28/43/2 27/44/2

usemtl FrontColor
vt -1.42918 0.125
vt -1.49868 0
vt -1.42918 0
f 30/91/19 38/92/40 28/93/19

vt -1.49868 0.125
f 38/92/40 30/91/19 37/94/40

usemtl BackColor
f 28/93/20 38/92/41 30/91/20

f 37/94/41 30/91/20 38/92/41

usemtl FrontColor
vt 1.43814 0.769441
f 30/54/5 26/53/5 37/95/5

usemtl BackColor
f 30/54/6 26/53/6 29/52/6

f 37/95/6 26/53/6 30/54/6

usemtl FrontColor
vt 1.48136 0.787275
f 37/95/5 26/53/5 36/96/5

usemtl BackColor
f 36/96/6 26/53/6 37/95/6

usemtl FrontColor
vt 1.50402 0.820212
f 36/96/5 26/53/5 34/97/5

usemtl BackColor
f 34/97/6 26/53/6 36/96/6

usemtl FrontColor
vt 1.51157 0.871465
f 34/97/5 26/53/5 32/98/5

usemtl BackColor
f 32/98/6 26/53/6 34/97/6

usemtl FrontColor
v 1.64862 0.545148 0.125
vt 1.64862 0.545148
f 32/98/5 26/53/5 39/99/5

usemtl BackColor
f 39/99/6 26/53/6 32/98/6

usemtl FrontColor
vt 1.55843 0
vt 1.69892 0.125
vn 0.280534 -0.959844 0
vt 1.55843 0.125
f 27/100/17 39/101/43 26/102/17

v 1.64862 0.545148 0
vt 1.69892 0
f 39/101/43 27/100/17 40/103/43

usemtl BackColor
vn -0.280534 0.959844 -0
f 40/103/44 27/100/18 39/101/44

usemtl FrontColor
vt -1.51157 0.871465
vt -1.64862 0.545148
f 27/44/1 31/104/1 40/105/1

vt -1.50402 0.820212
f 27/44/1 33/106/1 31/104/1

f 27/44/1 35/90/1 33/106/1

usemtl BackColor
f 35/90/2 38/89/2 27/44/2

f 33/106/2 35/90/2 27/44/2

f 33/83/36 34/82/36 35/81/38

f 31/104/2 33/106/2 27/44/2

f 31/79/34 32/78/34 33/77/36

f 40/105/2 31/104/2 27/44/2

usemtl FrontColor
f 40/105/1 31/104/1 17/25/1

usemtl BackColor
f 17/25/2 31/104/2 40/105/2

usemtl FrontColor
f 16/24/1 17/25/1 31/104/1

usemtl BackColor
f 31/104/2 17/25/2 16/24/2

f 16/75/32 19/74/32 31/73/34

usemtl FrontColor
v 1.74357 1.29627 0
vt -1.74357 1.29627
f 40/105/1 17/25/1 41/107/1

usemtl BackColor
f 41/107/2 17/25/2 40/105/2

usemtl FrontColor
vt -0.885777 0.125
vt -0.991618 0
vn 0.44174 0.897143 0
vt -0.885777 0
f 18/108/13 41/109/45 17/110/13

v 1.74357 1.29627 0.125
vt -0.991618 0.125
f 41/109/45 18/108/13 42/111/45

usemtl BackColor
vn -0.44174 -0.897143 -0
f 17/110/14 41/109/46 18/108/14

f 42/111/46 18/108/14 41/109/46

usemtl FrontColor
v 1.74357 0.591902 0.125
vt 1.74357 0.591902
vt 1.74357 1.29627
f 18/32/5 43/112/5 42/113/5

f 18/32/5 39/99/5 43/112/5

f 18/32/5 19/31/5 39/99/5

usemtl BackColor
f 18/32/6 19/31/6 11/30/6

f 39/99/6 19/31/6 18/32/6

usemtl FrontColor
f 32/98/5 39/99/5 19/31/5

usemtl BackColor
f 19/31/6 39/99/6 32/98/6

f 43/112/6 39/99/6 18/32/6

usemtl FrontColor
vt 1.71986 0
vt 1.8257 0.125
vn 0.658309 -0.752748 0
vt 1.71986 0.125
f 40/114/43 43/115/47 39/116/43

v 1.74357 0.591902 0
vt 1.8257 0
f 43/115/47 40/114/43 44/117/47

usemtl BackColor
vn -0.658309 0.752748 -0
f 44/117/48 40/114/44 43/115/48

usemtl FrontColor
vt -1.74357 0.591902
f 40/105/1 41/107/1 44/118/1

usemtl BackColor
f 44/118/2 41/107/2 40/105/2

usemtl FrontColor
v 1.79804 1.21481 0
vt -1.79804 1.21481
f 44/118/1 41/107/1 45/119/1

usemtl BackColor
f 45/119/2 41/107/2 44/118/2

usemtl FrontColor
vt 0.108443 0
vn 0.831293 0.555835 0
v 1.79804 1.21481 0.125
vt 0.0104526 0.125
vn 0.932346 0.361568 0
vt 0.0104526 0
f 41/120/49 46/121/50 45/122/50

vt 0.108443 0.125
f 46/121/50 41/120/49 42/123/49

usemtl BackColor
vn -0.932346 -0.361568 -0
vn -0.831293 -0.555835 -0
f 45/122/51 46/121/51 41/120/52

usemtl FrontColor
v 1.8162 1.09512 0.125
vt 0.81037 0.125
vn 0.997169 0.0751942 0
vt 0.931437 0
vt 0.931437 0.125
f 47/124/53 45/125/50 46/126/50

v 1.8162 1.09512 0
vt 0.81037 0
f 45/125/50 47/124/53 48/127/53

usemtl BackColor
vn -0.997169 -0.0751942 -0
f 48/127/54 47/124/54 45/125/51

usemtl FrontColor
v 1.8162 0.791774 0.125
vt 0.791774 0.125
vn 0.997123 -0.0757943 0
vt 1.09512 0
vt 1.09512 0.125
f 49/128/55 48/129/53 47/130/53

v 1.8162 0.791774 0
vt 0.791774 0
f 48/129/53 49/128/55 50/131/55

usemtl BackColor
vn -0.997123 0.0757943 -0
f 50/131/56 49/128/56 48/129/54

usemtl FrontColor
v 1.79804 0.67304 0.125
vt 0.937085 0.125
vn 0.931797 -0.36298 0
vt 1.0572 0
vt 1.0572 0.125
f 51/132/57 50/133/55 49/134/55

v 1.79804 0.67304 0
vt 0.937085 0
f 50/133/55 51/132/57 52/135/57

usemtl BackColor
vn -0.931797 0.36298 -0
f 52/135/58 51/132/58 50/133/56

usemtl FrontColor
vt 1.46323 0.125
vt 1.56095 0
vt 1.56095 0.125
f 43/136/47 52/137/57 51/138/57

vt 1.46323 0
f 52/137/57 43/136/47 44/139/47

usemtl BackColor
f 44/139/48 43/136/48 52/137/58

f 51/138/58 52/137/58 43/136/48

usemtl FrontColor
vt 1.79804 0.67304
f 42/113/5 43/112/5 51/140/5

usemtl BackColor
f 42/113/6 43/112/6 18/32/6

f 51/140/6 43/112/6 42/113/6

usemtl FrontColor
vt 1.79804 1.21481
f 42/113/5 51/140/5 46/141/5

usemtl BackColor
f 46/141/6 51/140/6 42/113/6

usemtl FrontColor
vt 1.8162 0.791774
f 46/141/5 51/140/5 49/142/5

usemtl BackColor
f 49/142/6 51/140/6 46/141/6

f 49/134/56 50/133/56 51/132/58

usemtl FrontColor
vt 1.8162 1.09512
f 46/141/5 49/142/5 47/143/5

usemtl BackColor
f 47/143/6 49/142/6 46/141/6

f 47/130/54 48/129/54 49/128/56

f 46/126/51 45/125/51 47/124/54

f 42/123/52 41/120/52 46/121/51

usemtl FrontColor
vt -1.79804 0.67304
f 44/118/1 45/119/1 52/144/1

usemtl BackColor
f 52/144/2 45/119/2 44/118/2

usemtl FrontColor
vt -1.8162 1.09512
f 52/144/1 45/119/1 48/145/1

usemtl BackColor
f 48/145/2 45/119/2 52/144/2

usemtl FrontColor
vt -1.8162 0.791774
f 52/144/1 48/145/1 50/146/1

usemtl BackColor
f 50/146/2 48/145/2 52/144/2

f 39/116/44 43/115/48 40/114/44

f 19/31/6 20/33/6 11/30/6

f 26/102/18 39/101/44 27/100/18

f 36/87/42 37/86/41 35/85/42

f 15/71/29 20/70/29 16/69/32

f 14/68/30 21/65/30 15/66/29

f 24/7/4 26/40/18 25/9/4

f 25/42/2 6/6/2 5/5/2

